<svg id="Иконка" xmlns="http://www.w3.org/2000/svg" width="108.688" height="82.688" viewBox="0 0 108.688 82.688">
  <metadata><?xpacket begin="﻿" id="W5M0MpCehiHzreSzNTczkc9d"?>
<x:xmpmeta xmlns:x="adobe:ns:meta/" x:xmptk="Adobe XMP Core 5.6-c138 79.159824, 2016/09/14-01:09:01        ">
   <rdf:RDF xmlns:rdf="http://www.w3.org/1999/02/22-rdf-syntax-ns#">
      <rdf:Description rdf:about=""/>
   </rdf:RDF>
</x:xmpmeta>
                                                                                                    
                                                                                                    
                                                                                                    
                                                                                                    
                                                                                                    
                                                                                                    
                                                                                                    
                                                                                                    
                                                                                                    
                                                                                                    
                                                                                                    
                                                                                                    
                                                                                                    
                                                                                                    
                                                                                                    
                                                                                                    
                                                                                                    
                                                                                                    
                                                                                                    
                                                                                                    
                           
<?xpacket end="w"?></metadata>
<defs>
    <style>
      .cls-1 {
        fill: #868686;
      }

      .cls-1, .cls-2 {
        fill-rule: evenodd;
      }

      .cls-2 {
        fill: #289548;
        stroke: #fff;
        stroke-width: 3px;
      }
    </style>
  </defs>
  <path id="Монитор" class="cls-1" d="M836.341,485.011a7.646,7.646,0,0,1,7.668,7.687v51.248a7.646,7.646,0,0,1-7.668,7.687H803.668l-0.444,7.687h11.5a3.694,3.694,0,0,1,2.716,1.121c0.746,0.748.051,2.725,1.118,2.723-19.567.038-22.306,0.211-41.121,0-1.067-.012.373-1.975,1.119-2.723a3.692,3.692,0,0,1,2.715-1.121h11.5l-0.444-7.687H759.659a7.645,7.645,0,0,1-7.668-7.687V492.7a7.645,7.645,0,0,1,7.668-7.687h76.682Zm0.444,59.372V492.26h-77.57v52.123h77.57Z" transform="translate(-752 -485)"/>
  <path id="Файл" class="cls-1" d="M814.645,518a5.279,5.279,0,0,0,.343-2.258q0-1.6-.515-1.6a2.544,2.544,0,0,0-.172,1.477A6.829,6.829,0,0,0,814.645,518Zm-0.172,3.857a9.807,9.807,0,0,0,3.006,3.365,32.359,32.359,0,0,0-4.208,1.314l-1.2.492A44.382,44.382,0,0,0,814.473,521.858Zm-8.072,10.26a10.238,10.238,0,0,1,2.662-3.037l0.343-.246q-0.858,1.231-1.631,2.134a4.431,4.431,0,0,1-.945.944C806.544,532.1,806.4,532.173,806.4,532.118Zm13.912-22a2.031,2.031,0,0,1-1.46-.575,1.857,1.857,0,0,1-.6-1.395V496.988H801.076a2.037,2.037,0,0,0-1.46.575,1.86,1.86,0,0,0-.6,1.4v38.085a1.86,1.86,0,0,0,.6,1.395,2.037,2.037,0,0,0,1.46.575h28.855a2.037,2.037,0,0,0,1.46-.575,1.86,1.86,0,0,0,.6-1.395V510.121H820.313Zm-0.687,14.117q4.98-.656,6.354.575a1.925,1.925,0,0,1,.559,1.354,2.025,2.025,0,0,1-.559,1.519,2.212,2.212,0,0,1-1.717.656,10.121,10.121,0,0,1-2.619-.41,13.7,13.7,0,0,1-2.877-1.149,37.523,37.523,0,0,0-5.5,1.477l-1.288.411a19.52,19.52,0,0,1-2.877,3.9,3.557,3.557,0,0,1-2.362,1.191,2.91,2.91,0,0,1-.987-0.206,2.079,2.079,0,0,1-.9-0.615q-1.031-1.314.859-3.119a14.177,14.177,0,0,1,3.864-2.463h0A72.743,72.743,0,0,0,813.1,520.3a27.161,27.161,0,0,1-.773-3.612,5.942,5.942,0,0,1,.086-2.708,1.452,1.452,0,0,1,1.116-1.108,2.534,2.534,0,0,1,1.847.123,2.085,2.085,0,0,1,1.159,1.559,6.211,6.211,0,0,1,0,2.545,19.478,19.478,0,0,1-.515,2.626l-0.086.082A8.828,8.828,0,0,0,819.626,524.238Zm11.765-18.631a1.86,1.86,0,0,1,.6,1.395V507.5H821V496.988h0.515a2.037,2.037,0,0,1,1.46.575Zm-6.355,20.93-0.258.082a3.2,3.2,0,0,1-1.03,0,22.108,22.108,0,0,1-2.405-.821,12.573,12.573,0,0,1,2.576.082,1.839,1.839,0,0,1,1.031.328C825.122,526.373,825.15,526.482,825.036,526.537Z" transform="translate(-752 -485)"/>
  <path id="Стрелка" class="cls-2" d="M827.906,564.107a2.352,2.352,0,0,0,1.816-.811,2.735,2.735,0,0,0,.734-1.893l-0.387-18.159,22.177,22.177a2.613,2.613,0,0,0,3.709,0l2.472-2.473a2.611,2.611,0,0,0,0-3.709l-22.176-22.176,18.158,0.386a2.735,2.735,0,0,0,1.893-.734,2.353,2.353,0,0,0,.812-1.816l-0.078-3.477a2.636,2.636,0,0,0-2.627-2.627h-29.98a2.638,2.638,0,0,0-2.628,2.627V561.4a2.639,2.639,0,0,0,2.628,2.627Z" transform="translate(-752 -485)"/>
</svg>
