<svg xmlns="http://www.w3.org/2000/svg" width="24" height="30" viewBox="0 0 24 30">
  <metadata><?xpacket begin="﻿" id="W5M0MpCehiHzreSzNTczkc9d"?>
<x:xmpmeta xmlns:x="adobe:ns:meta/" x:xmptk="Adobe XMP Core 5.6-c138 79.159824, 2016/09/14-01:09:01        ">
   <rdf:RDF xmlns:rdf="http://www.w3.org/1999/02/22-rdf-syntax-ns#">
      <rdf:Description rdf:about=""/>
   </rdf:RDF>
</x:xmpmeta>
                                                                                                    
                                                                                                    
                                                                                                    
                                                                                                    
                                                                                                    
                                                                                                    
                                                                                                    
                                                                                                    
                                                                                                    
                                                                                                    
                                                                                                    
                                                                                                    
                                                                                                    
                                                                                                    
                                                                                                    
                                                                                                    
                                                                                                    
                                                                                                    
                                                                                                    
                                                                                                    
                           
<?xpacket end="w"?></metadata>
<defs>
    <style>
      .cls-1 {
        fill: #868686;
        fill-rule: evenodd;
      }
    </style>
  </defs>
  <path id="Иконка_тифф" data-name="Иконка тифф" class="cls-1" d="M864.007,244.144a1.313,1.313,0,0,0-.437-1l-6.128-5.746a1.5,1.5,0,0,0-1.063-.41H856v7.5h8v-0.352Zm-8.5,2.228h8.5V265.6a1.315,1.315,0,0,1-.437,1,1.5,1.5,0,0,1-1.063.41H841.5a1.5,1.5,0,0,1-1.063-.41,1.319,1.319,0,0,1-.437-1V238.4a1.319,1.319,0,0,1,.437-1,1.5,1.5,0,0,1,1.063-.41H854v7.973a1.316,1.316,0,0,0,.438,1A1.5,1.5,0,0,0,855.5,246.372Zm-8.442.938a3,3,0,0,0-2.126.821,2.708,2.708,0,0,0,0,3.987,2.957,2.957,0,0,0,2.095.82,3.065,3.065,0,0,0,2.126-.82,2.644,2.644,0,0,0,0-3.987A3.029,3.029,0,0,0,847.062,247.31Zm13.006,14.071v-6.567l-2.5-2.345a0.7,0.7,0,0,0-.5-0.176,0.957,0.957,0,0,0-.563.176l-6.44,6.1-2.5-2.345a0.9,0.9,0,0,0-.532-0.176,0.657,0.657,0,0,0-.469.176l-2.5,2.345v2.814h16.007Z" transform="translate(-840 -237)"/>
</svg>
