<svg id="Иконка_проверки_Статика" data-name="Иконка проверки Статика" xmlns="http://www.w3.org/2000/svg" xmlns:xlink="http://www.w3.org/1999/xlink" width="60" height="60" viewBox="0 0 60 60">
  <metadata><?xpacket begin="﻿" id="W5M0MpCehiHzreSzNTczkc9d"?>
<x:xmpmeta xmlns:x="adobe:ns:meta/" x:xmptk="Adobe XMP Core 5.6-c138 79.159824, 2016/09/14-01:09:01        ">
   <rdf:RDF xmlns:rdf="http://www.w3.org/1999/02/22-rdf-syntax-ns#">
      <rdf:Description rdf:about=""/>
   </rdf:RDF>
</x:xmpmeta>
                                                                                                    
                                                                                                    
                                                                                                    
                                                                                                    
                                                                                                    
                                                                                                    
                                                                                                    
                                                                                                    
                                                                                                    
                                                                                                    
                                                                                                    
                                                                                                    
                                                                                                    
                                                                                                    
                                                                                                    
                                                                                                    
                                                                                                    
                                                                                                    
                                                                                                    
                                                                                                    
                           
<?xpacket end="w"?></metadata>
<defs>
    <style>
      .cls-1 {
        fill: #fff;
        stroke: #868686;
        stroke-width: 1px;
        filter: url(#filter);
      }

      .cls-2 {
        fill: #868686;
      }

      .cls-2, .cls-3 {
        fill-rule: evenodd;
      }

      .cls-3 {
        fill: #289548;
        stroke: #fff;
        stroke-width: 3px;
      }
    </style>
    <filter id="filter" x="0.5" y="0.5" width="59" height="59" filterUnits="userSpaceOnUse">
      <feOffset result="offset" in="SourceAlpha"/>
      <feGaussianBlur result="blur" stdDeviation="2.236"/>
      <feFlood result="flood" flood-color="#2d2d2c" flood-opacity="0.15"/>
      <feComposite result="composite" operator="in" in2="blur"/>
      <feBlend result="blend" in="SourceGraphic"/>
    </filter>
  </defs>
  <g style="fill: #fff; filter: url(#filter)">
    <circle id="Подложка_иконки_Наведение" data-name="Подложка иконки Наведение" class="cls-1" cx="29.5" cy="29.5" r="25" style="stroke: inherit; filter: none; fill: inherit"/>
  </g>
  <use xlink:href="#Подложка_иконки_Наведение" style="stroke: #868686; filter: none; fill: none"/>
  <path id="Иконка_файла" data-name="Иконка файла" class="cls-2" d="M646.832,688.973a1.372,1.372,0,0,0,.4,1,1.309,1.309,0,0,0,.974.411H656V709.6a1.373,1.373,0,0,1-.4,1,1.31,1.31,0,0,1-.974.41H635.375a1.308,1.308,0,0,1-.974-0.41,1.373,1.373,0,0,1-.4-1V682.409a1.372,1.372,0,0,1,.4-1,1.309,1.309,0,0,1,.974-0.411h11.457v7.971Zm9.165-.82a1.375,1.375,0,0,0-.4-1l-5.614-5.743a1.311,1.311,0,0,0-.974-0.411h-0.344v7.5H656v-0.351Z" transform="translate(-615.5 -666.5)"/>
  <path id="Лупа" class="cls-3" d="M656.254,709.74a0.618,0.618,0,0,1,0,.895l-0.768.737a0.682,0.682,0,0,1-.932,0l-2.741-2.632a0.6,0.6,0,0,1-.192-0.447v-0.421a5.814,5.814,0,0,1-8.444-1.566,5.308,5.308,0,0,1,0-5.5,5.811,5.811,0,0,1,9.869,0,5.307,5.307,0,0,1-.438,6.118h0.438a0.648,0.648,0,0,1,.466.185Zm-8.142-2.816a3.6,3.6,0,0,0,1.768-.447,3.348,3.348,0,0,0,1.275-1.224,3.323,3.323,0,0,0,0-3.394,3.348,3.348,0,0,0-1.275-1.224,3.722,3.722,0,0,0-3.537,0,3.338,3.338,0,0,0-1.274,1.224,3.317,3.317,0,0,0,0,3.394,3.338,3.338,0,0,0,1.274,1.224A3.6,3.6,0,0,0,648.112,706.924Z" transform="translate(-615.5 -666.5)"/>
</svg>
