<svg xmlns="http://www.w3.org/2000/svg" width="24" height="30" viewBox="0 0 24 30">
  <metadata><?xpacket begin="﻿" id="W5M0MpCehiHzreSzNTczkc9d"?>
<x:xmpmeta xmlns:x="adobe:ns:meta/" x:xmptk="Adobe XMP Core 5.6-c138 79.159824, 2016/09/14-01:09:01        ">
   <rdf:RDF xmlns:rdf="http://www.w3.org/1999/02/22-rdf-syntax-ns#">
      <rdf:Description rdf:about=""/>
   </rdf:RDF>
</x:xmpmeta>
                                                                                                    
                                                                                                    
                                                                                                    
                                                                                                    
                                                                                                    
                                                                                                    
                                                                                                    
                                                                                                    
                                                                                                    
                                                                                                    
                                                                                                    
                                                                                                    
                                                                                                    
                                                                                                    
                                                                                                    
                                                                                                    
                                                                                                    
                                                                                                    
                                                                                                    
                                                                                                    
                           
<?xpacket end="w"?></metadata>
<defs>
    <style>
      .cls-1 {
        fill: #868686;
        fill-rule: evenodd;
      }
    </style>
  </defs>
  <path id="иконка_джипег" data-name="иконка джипег" class="cls-1" d="M1043.99,244.144a1.323,1.323,0,0,0-.44-1l-6.12-5.746a1.5,1.5,0,0,0-1.06-.41h-0.38v7.5h8v-0.352Zm-8.5,2.228h8.5V265.6a1.325,1.325,0,0,1-.44,1,1.5,1.5,0,0,1-1.06.41h-20.98a1.525,1.525,0,0,1-1.07-.41,1.316,1.316,0,0,1-.43-1V238.4a1.316,1.316,0,0,1,.43-1,1.525,1.525,0,0,1,1.07-.41H1034v7.973a1.316,1.316,0,0,0,.43,1A1.5,1.5,0,0,0,1035.49,246.372Zm-8.43.938a2.982,2.982,0,0,0-2.12.821,2.719,2.719,0,0,0,0,3.987,2.943,2.943,0,0,0,2.09.82,3.091,3.091,0,0,0,2.13-.82,2.658,2.658,0,0,0,0-3.987A3.055,3.055,0,0,0,1027.06,247.31Zm12.99,14.071v-6.567l-2.5-2.345a0.691,0.691,0,0,0-.5-0.176,0.975,0.975,0,0,0-.56.176l-6.43,6.1-2.5-2.345a0.879,0.879,0,0,0-.53-0.176,0.68,0.68,0,0,0-.47.176l-2.49,2.345v2.814h15.98Z" transform="translate(-1020 -237)"/>
</svg>
