<svg xmlns="http://www.w3.org/2000/svg" width="28" height="36" viewBox="0 0 28 36">
  <metadata><?xpacket begin="﻿" id="W5M0MpCehiHzreSzNTczkc9d"?>
<x:xmpmeta xmlns:x="adobe:ns:meta/" x:xmptk="Adobe XMP Core 5.6-c138 79.159824, 2016/09/14-01:09:01        ">
   <rdf:RDF xmlns:rdf="http://www.w3.org/1999/02/22-rdf-syntax-ns#">
      <rdf:Description rdf:about=""/>
   </rdf:RDF>
</x:xmpmeta>
                                                                                                    
                                                                                                    
                                                                                                    
                                                                                                    
                                                                                                    
                                                                                                    
                                                                                                    
                                                                                                    
                                                                                                    
                                                                                                    
                                                                                                    
                                                                                                    
                                                                                                    
                                                                                                    
                                                                                                    
                                                                                                    
                                                                                                    
                                                                                                    
                                                                                                    
                                                                                                    
                           
<?xpacket end="w"?></metadata>
<defs>
    <style>
      .cls-1 {
        fill: #289548;
        fill-rule: evenodd;
        opacity: 0.9;
      }
    </style>
  </defs>
  <path id="Иконка" class="cls-1" d="M1240.26,251a4.638,4.638,0,0,0,.29-1.935c0-.914-0.14-1.371-0.44-1.371a2.316,2.316,0,0,0-.14,1.266A6.015,6.015,0,0,0,1240.26,251Zm-0.15,3.307a8.513,8.513,0,0,0,2.56,2.884,27.3,27.3,0,0,0-3.58,1.126l-1.02.422A36.958,36.958,0,0,0,1240.11,254.307Zm-6.85,8.794a8.762,8.762,0,0,1,2.26-2.6l0.29-.211c-0.48.7-.95,1.313-1.38,1.829a3.8,3.8,0,0,1-.81.809Q1233.26,263.171,1233.26,263.1Zm11.81-18.855a1.731,1.731,0,0,1-1.24-.492,1.6,1.6,0,0,1-.51-1.2V232.99h-14.58a1.714,1.714,0,0,0-1.24.492,1.6,1.6,0,0,0-.51,1.2v32.644a1.6,1.6,0,0,0,.51,1.2,1.714,1.714,0,0,0,1.24.492h24.5a1.714,1.714,0,0,0,1.24-.492,1.6,1.6,0,0,0,.51-1.2V244.246h-9.92Zm-0.58,12.1q4.23-.562,5.4.492a1.646,1.646,0,0,1,.47,1.161,1.72,1.72,0,0,1-.47,1.3,1.875,1.875,0,0,1-1.46.563,8.671,8.671,0,0,1-2.23-.352,11.6,11.6,0,0,1-2.44-.985,31.782,31.782,0,0,0-4.67,1.266l-1.09.352a16.759,16.759,0,0,1-2.44,3.342,3.033,3.033,0,0,1-2.01,1.02,2.5,2.5,0,0,1-.84-0.176,1.756,1.756,0,0,1-.76-0.528c-0.59-.75-0.34-1.641.73-2.673a11.921,11.921,0,0,1,3.28-2.111h0a64.18,64.18,0,0,0,2.99-6.05,24.029,24.029,0,0,1-.66-3.1,5.3,5.3,0,0,1,.07-2.321,1.253,1.253,0,0,1,.95-0.95,2.138,2.138,0,0,1,1.57.106,1.768,1.768,0,0,1,.98,1.336,5.233,5.233,0,0,1,0,2.181,15.743,15.743,0,0,1-.43,2.252l-0.08.07A7.609,7.609,0,0,0,1244.49,256.347Zm9.99-15.97a1.6,1.6,0,0,1,.51,1.2V242h-9.33v-9h0.44a1.708,1.708,0,0,1,1.23.492Zm-5.39,17.94-0.22.07a2.693,2.693,0,0,1-.88,0,19.136,19.136,0,0,1-2.04-.7,10.612,10.612,0,0,1,2.19.07,1.54,1.54,0,0,1,.87.281C1249.16,258.176,1249.18,258.27,1249.09,258.317Z" transform="translate(-1227 -233)"/>
</svg>
